<?xml version="1.0" encoding="UTF-8"?>
<svg xmlns="http://www.w3.org/2000/svg" xmlns:xlink="http://www.w3.org/1999/xlink" viewBox="0 0 480 480" width="480px" height="480px">
<g id="surface16749696">
<path style=" stroke:none;fill-rule:nonzero;fill:rgb(40.392157%,22.745098%,71.764708%);fill-opacity:1;" d="M 382.5 342.917969 C 382.5 364.785156 364.785156 382.5 342.917969 382.5 L 137.082031 382.5 C 115.226562 382.5 97.5 364.785156 97.5 342.917969 L 97.5 137.082031 C 97.5 115.21875 115.226562 97.5 137.082031 97.5 L 342.917969 97.5 C 364.785156 97.5 382.5 115.21875 382.5 137.082031 Z M 382.5 342.917969 "/>
<path style=" stroke:none;fill-rule:nonzero;fill:rgb(100%,100%,100%);fill-opacity:1;" d="M 311.488281 252.667969 C 306.34375 245.542969 298.902344 240.632812 289.320312 238.023438 C 289.320312 238.023438 297.398438 235.09375 304.679688 224.167969 C 309.035156 217.199219 311.25 208.808594 311.25 198.992188 C 311.25 181.972656 305.074219 168.910156 292.726562 159.964844 C 280.375 151.015625 266.441406 145 242.773438 145 L 168.75 145 L 168.75 335 L 251.320312 335 C 273.726562 334.84375 290.589844 330.011719 302.066406 320.75 C 313.46875 311.332031 319.167969 297.398438 319.167969 278.792969 C 319.167969 268.5 316.632812 259.792969 311.488281 252.667969 Z M 216.25 176.667969 C 216.25 176.667969 249.261719 176.667969 249.898438 176.667969 C 261.929688 176.667969 271.667969 186.40625 271.667969 198.4375 C 271.667969 210.472656 261.929688 220.207031 249.898438 220.207031 C 249.261719 220.207031 216.25 220.207031 216.25 220.207031 Z M 255.835938 303.335938 L 216.25 303.335938 L 216.25 255.835938 L 255.835938 255.835938 C 268.976562 255.835938 279.585938 266.441406 279.585938 279.585938 C 279.585938 292.726562 268.976562 303.335938 255.835938 303.335938 Z M 255.835938 303.335938 "/>
</g>
</svg>
